<svg width="21" height="20" viewBox="0 0 21 20" fill="none" xmlns="http://www.w3.org/2000/svg">
<path d="M19.6875 0.827071C19.1187 0.258321 18.2 0.258321 17.6312 0.827071L10.5 7.94374L3.36871 0.812488C2.79996 0.243738 1.88121 0.243738 1.31246 0.812488C0.743707 1.38124 0.743707 2.29999 1.31246 2.86874L8.44371 9.99999L1.31246 17.1312C0.743707 17.7 0.743707 18.6187 1.31246 19.1875C1.88121 19.7562 2.79996 19.7562 3.36871 19.1875L10.5 12.0562L17.6312 19.1875C18.2 19.7562 19.1187 19.7562 19.6875 19.1875C20.2562 18.6187 20.2562 17.7 19.6875 17.1312L12.5562 9.99999L19.6875 2.86874C20.2416 2.31457 20.2416 1.38124 19.6875 0.827071Z" fill="#797979"/>
</svg>
